<?xml version="1.0" encoding="utf-8"?>
<!-- Generator: Adobe Illustrator 27.1.0, SVG Export Plug-In . SVG Version: 6.00 Build 0)  -->
<svg version="1.1" id="Capa_1" xmlns="http://www.w3.org/2000/svg" xmlns:xlink="http://www.w3.org/1999/xlink" x="0px" y="0px"
	 viewBox="0 0 1000 300" style="enable-background:new 0 0 1000 300;" xml:space="preserve">
<style type="text/css">
	.st0{fill:#F3964E;}
	.st1{fill:#FFFFFF;}
	.st2{fill:#A5C715;}
	.st3{fill:none;stroke:#000000;stroke-miterlimit:10;}
	.st4{fill:url(#SVGID_1_);}
	.st5{fill:url(#SVGID_00000014636399187100541820000001838520444701992353_);}
	.st6{fill:url(#SVGID_00000008868633653812223840000007484485855498571698_);}
	.st7{fill:url(#SVGID_00000066495603751090720400000007667792744570698408_);}
	.st8{fill:url(#SVGID_00000137124048984500685020000004539564778084092074_);}
	.st9{fill:url(#SVGID_00000132790191436478580400000018418355159467297442_);}
	.st10{fill:url(#SVGID_00000163770593344102764420000011272356152675743389_);}
	.st11{fill:url(#SVGID_00000166653159047158748670000008817285282206170525_);}
	.st12{fill:url(#SVGID_00000050647700966648407510000002398673818010396045_);}
	.st13{fill:#32BEF0;}
</style>
<g>
	<path class="st1" d="M307.7,172.2l-1.4,11.6c0,0.2-0.1,1.2-0.2,1.4c-1.9,14.9-11.9,26.1-26.3,26.1h-12.3h-4.3H201l4.9-39l5.5-43.9
		l4.9-39h79.4c11,0,19.8,8.9,19.8,19.8c0,0.3,0,0.6,0,1h0l-0.1,0.7c0,0.5-0.1,1-0.2,1.5l-15.3,44.4l-52.6,15.6
		c0,0,19.2-22.4,22.3-28.1c3.2-5.7,2.8-10.8,2.8-11.2c0-11-8.9-19.8-19.8-19.8l-7.3,59.1H307.7z"/>
	<path class="st1" d="M783.7,128.5l4.9-39h-62.2h-4.3h-12.3c-14.4,0-24.4,11.2-26.3,26.1c0,0.2-0.2,1.2-0.2,1.4l-6.7,53.3h0
		l-2.3,18.2c-0.1,0.5-0.1,1-0.2,1.5l-0.1,0.7h0c0,0.3,0,0.6,0,1c0,11,8.9,19.8,19.8,19.8h79.4l4.9-39H716l5.5-43.9H783.7z"/>
	<path class="st1" d="M415.4,93.9l-14.7,82.4c-1.7,7.9-5.4,11.1-11.6,11.1h-14.8l11.8-94.7c-13.3-0.6-26.4-1.3-39.3-2.1l-15,120.6
		l21.6,0c22.6-1.3,45.8-2.3,69.5-3c8-4.4,13.5-13,15.4-23.4c0-0.2,12.8-69.6,16.5-89.9C441.5,94.6,428.4,94.3,415.4,93.9z"/>
	<path class="st1" d="M500.7,95.3c-3.2,0-6.3,0-9.4,0c-5.5,4.7-9,11.8-10.1,20.1c0,0.2-0.2,1.2-0.2,1.4l-11.3,90.5
		c10.2-0.1,20.6-0.2,31-0.2c2.9,0,5.8,0,8.7,0l13.9-112C515.8,95.2,508.3,95.3,500.7,95.3z"/>
	<path class="st1" d="M562,94.6c-5.9,4.7-9.9,12.1-11,20.8c0,0.2-0.2,1.2-0.2,1.4l-1.4,11.6h39.9h22.5l-7.3,59.1
		c-11,0-19.8-8.9-19.8-19.8c0-0.3,0.2-2.6,0.3-3.1l4.4-36.2l-41.9,18.5l-5.5,41.5c-0.1,0.5-0.1,1-0.2,1.5l-0.1,0.7h0
		c0,0.3,0,0.6,0,1c0,6.6,3.3,12.5,8.3,16.1c31.2,0.6,61.6,1.7,91,3.3l4.8-38.6l5.5-43.9l4.7-37.8C625.7,92.5,594.3,93.8,562,94.6z"
		/>
	<path class="st1" d="M821.4,73.4l-19,152.7c9.9,1.4,19.5,2.8,28.8,4.4c7.1-4.5,11.8-12.6,13-22.3c0-0.2,0.2-1.2,0.2-1.4l17.5-140.2
		C849,69,835.5,71.3,821.4,73.4z"/>
	<path class="st1" d="M903.1,124.5L969.9,42h-12.3c-11,3.9-23.3,7.7-36.6,11.2l-68.3,84.5l63,110.2h39.9l-52.5-97
		c0,0-9.1-12-17.6-13.2C894,136.5,903.1,124.5,903.1,124.5z"/>
	<path class="st1" d="M151.7,68.7c-2.1,3.7-3.5,8-4.1,12.7c0,0.2-0.2,1.2-0.2,1.4l-6.9,53.1l-61.4,21.1l42.3-5.9
		c8.9,0,15,5.8,15.5,13.9l-8.7,69.1h20.1c6.6-1.2,13.3-2.3,20.2-3.5l19.5-156C175.5,72.8,163.4,70.8,151.7,68.7z"/>
	<path class="st1" d="M55,45.8L30.7,252.5l-0.7,5.4h16.6c14.4,0,24.4-11.2,26.3-26.1c0-0.2,0.2-1.2,0.2-1.4L93.4,56.6
		C79.5,53.1,66.7,49.6,55,45.8z M43.7,257.9c0.2,0,0.7,0,1.4,0C44.4,257.9,44,257.9,43.7,257.9z"/>
</g>
</svg>
